# xmcd
#
# Track frame offsets:
#	152
#	21311
#	46138
#	67143
#	86999
#	106243
#	124404
#	145455
#	174994
#	190365
#	205040
#	224370
#	241046
#	258774
#
# Disc length: 3900 seconds
#
# Revision: 0
# Processed by: cddbd v1.4PL0 Copyright (c) Steve Scherf et al.
# Submitted via: EasyCDDAExtractor 4.6.0.1
#
DISCID=ce0f3a0e
DTITLE=Peg Leg Sam - Kickin' it!
DYEAR=2000
DGENRE=Blues
TTITLE0=Who's That Left Here 'While Ago
TTITLE1=Greasy Greens
TTITLE2=Reuben
TTITLE3=Irene, Tell Me, Who Do You Love
TTITLE4=Skinny Woman Blues
TTITLE5=Lost John
TTITLE6=Ode to Bad Bill
TTITLE7=Ain't But One Thing Give a Man the Blues
TTITLE8=Easy Ridin' Buggy
TTITLE9=Peg's Fox Chase
TTITLE10=Before You Give It All Away
TTITLE11=Fast Frieght Train
TTITLE12=Nasty Old Trail
TTITLE13=Born In Hard Luck
EXTD=
EXTT0=
EXTT1=
EXTT2=
EXTT3=
EXTT4=
EXTT5=
EXTT6=
EXTT7=
EXTT8=
EXTT9=
EXTT10=
EXTT11=
EXTT12=
EXTT13=
PLAYORDER=
